<svg width="1267" height="291" viewBox="0 0 1267 291" fill="none" xmlns="http://www.w3.org/2000/svg">
<g clip-path="url(#clip0_33_40)">
<path d="M32.7874 138.547C32.7874 116.951 53.9858 106.954 74.7751 106.954C93.972 106.954 114.363 114.551 122.767 134.953L144.762 122.159C133.162 97.3668 107.573 81.3657 74.7751 81.3657C34.7889 81.3657 6.3916 106.556 6.3916 138.547C6.3916 212.128 123.165 183.742 123.165 233.327C123.165 256.925 100.773 265.318 77.1747 265.318C50.3808 265.318 29.5805 252.114 22.3927 231.723L0 244.915C9.99655 270.504 37.1885 290.906 77.1858 290.906C119.97 290.906 149.572 267.308 149.572 233.315C149.572 159.735 32.7984 188.121 32.7984 138.536L32.7874 138.547Z" fill="white"/>
<path d="M1218.26 0C1191.91 0 1170.48 21.4307 1170.48 47.7822C1170.48 74.1337 1191.91 95.5644 1218.26 95.5644C1244.61 95.5644 1266.05 74.1337 1266.05 47.7822C1266.05 21.4307 1244.61 0 1218.26 0ZM1218.26 69.81C1206.12 69.81 1196.24 59.924 1196.24 47.7822C1196.24 35.6404 1206.12 25.7544 1218.26 25.7544C1230.4 25.7544 1240.29 35.6404 1240.29 47.7822C1240.29 59.924 1230.4 69.81 1218.26 69.81Z" fill="#0064FF"/>
<path d="M765.809 81.2776C734.26 81.2776 705.951 95.2993 686.71 117.416V86.4528H660.955V285.809H686.71V186.131C686.71 142.518 722.195 107.032 765.809 107.032V81.2776Z" fill="white"/>
<path d="M586.026 117.426C566.785 95.3102 538.476 81.2885 506.927 81.2885C449.115 81.2885 402.074 128.319 402.074 186.142C402.074 243.965 449.104 290.995 506.927 290.995C538.476 290.995 566.785 276.973 586.026 254.857V285.82H611.78V86.4526H586.026V117.415V117.426ZM506.938 265.229C463.325 265.229 427.839 229.744 427.839 186.131C427.839 142.517 463.325 107.032 506.938 107.032C550.551 107.032 586.037 142.517 586.037 186.131C586.037 229.744 550.551 265.229 506.938 265.229Z" fill="white"/>
<path d="M275.502 265.229C245.612 265.229 219.548 248.564 206.101 224.026H177.77C192.997 263.161 231.048 290.983 275.502 290.983C312.425 290.983 344.925 271.786 363.613 242.858L341.431 229.776C327.254 251.118 303.004 265.229 275.513 265.229H275.502Z" fill="white"/>
<path d="M275.502 81.2776C222.047 81.2776 177.848 121.496 171.467 173.248C170.947 177.472 170.649 181.763 170.649 186.12C170.649 190.233 170.914 194.281 171.379 198.262L171.467 198.991H379.515C379.515 198.991 379.57 198.66 379.625 198.262C380.09 194.27 380.355 190.233 380.355 186.12C380.355 181.763 380.057 177.472 379.537 173.248C373.167 121.485 328.957 81.2776 275.502 81.2776ZM197.476 173.259C203.646 135.75 236.279 107.043 275.502 107.043C314.725 107.043 347.369 135.75 353.528 173.259H197.465H197.476Z" fill="white"/>
<path d="M1077.85 265.229C1047.96 265.229 1021.89 248.564 1008.45 224.026H980.116C995.343 263.161 1033.39 290.983 1077.85 290.983C1114.77 290.983 1147.27 271.786 1165.96 242.858L1143.78 229.776C1129.6 251.118 1105.35 265.229 1077.86 265.229H1077.85Z" fill="white"/>
<path d="M1077.85 81.2776C1024.39 81.2776 980.193 121.496 973.812 173.248C973.293 177.472 972.994 181.763 972.994 186.12C972.994 190.233 973.26 194.281 973.724 198.262L973.812 198.991H1181.86C1181.86 198.991 1181.92 198.66 1181.97 198.262C1182.44 194.27 1182.7 190.233 1182.7 186.12C1182.7 181.763 1182.4 177.472 1181.88 173.248C1175.51 121.485 1131.3 81.2776 1077.85 81.2776ZM999.821 173.259C1005.99 135.75 1038.62 107.043 1077.85 107.043C1117.07 107.043 1149.71 135.75 1155.87 173.259H999.81H999.821Z" fill="white"/>
<path d="M864.503 265.23C820.889 265.23 785.404 229.744 785.404 186.131C785.404 142.518 820.889 107.032 864.503 107.032C893.199 107.032 918.367 122.392 932.234 145.315L954.538 132.455C936.215 101.824 902.719 81.2776 864.514 81.2776C806.702 81.2776 759.66 128.308 759.66 186.131C759.66 243.954 806.691 290.984 864.514 290.984C902.974 290.984 936.646 270.15 954.892 239.199L932.643 226.25C918.864 249.56 893.497 265.23 864.514 265.23H864.503Z" fill="white"/>
</g>
<defs>
<clipPath id="clip0_33_40">
<rect width="1266.05" height="290.984" fill="white"/>
</clipPath>
</defs>
</svg>
